<svg width="35" height="35" viewBox="0 0 35 35" fill="none" xmlns="http://www.w3.org/2000/svg">
<path d="M21.1205 9.65552H19.9137V10.8624H21.1205V9.65552Z" fill="white"/>
<path d="M12.6722 16.8965H11.4654V18.1033H12.6722V16.8965Z" fill="white"/>
<path d="M18.7068 9.65552H17.5V10.8624H18.7068V9.65552Z" fill="white"/>
<path d="M24.7414 12.0692H16.2931V8.44829H24.7414V12.0692ZM12.0688 12.0692C11.0696 12.0692 10.2585 11.2582 10.2585 10.259C10.2585 9.25932 11.0696 8.44829 12.0688 8.44829C13.0684 8.44829 13.8791 9.25932 13.8791 10.259C13.8791 11.2582 13.0684 12.0692 12.0688 12.0692ZM25.9483 7.24146H9.0517V13.2761H25.9483V7.24146Z" fill="white"/>
<path d="M17.5 16.8965H16.2932V18.1033H17.5V16.8965Z" fill="white"/>
<path d="M23.5346 9.65552H22.3273V10.8624H23.5346V9.65552Z" fill="white"/>
<path d="M12.6722 2.41406H11.4654V3.6209H12.6722V2.41406Z" fill="white"/>
<path d="M12.0688 9.65552C11.7367 9.65552 11.4654 9.92642 11.4654 10.2589C11.4654 10.591 11.7367 10.8624 12.0688 10.8624C12.4013 10.8624 12.6722 10.591 12.6722 10.2589C12.6722 9.92642 12.4013 9.65552 12.0688 9.65552Z" fill="white"/>
<path d="M17.5 2.41406H16.2932V3.6209H17.5V2.41406Z" fill="white"/>
<path d="M15.0863 2.41406H13.8791V3.6209H15.0863V2.41406Z" fill="white"/>
<path d="M22.9308 2.41406C22.5987 2.41406 22.3273 2.68497 22.3273 3.01748C22.3273 3.34957 22.5987 3.6209 22.9308 3.6209C23.2633 3.6209 23.5346 3.34957 23.5346 3.01748C23.5346 2.68497 23.2633 2.41406 22.9308 2.41406Z" fill="white"/>
<path d="M22.9308 4.82778C21.9315 4.82778 21.1205 4.01675 21.1205 3.01752C21.1205 2.01787 21.9315 1.20726 22.9308 1.20726C23.9304 1.20726 24.7414 2.01787 24.7414 3.01752C24.7414 4.01675 23.9304 4.82778 22.9308 4.82778ZM18.7068 4.82778H10.2585V1.20726H18.7068V4.82778ZM25.9483 1.81068C25.9483 0.811029 25.1372 0 24.138 0H10.862C9.86273 0 9.0517 0.811029 9.0517 1.81068V6.03461H25.9483V1.81068Z" fill="white"/>
<path d="M15.0863 16.8965H13.8791V18.1033H15.0863V16.8965Z" fill="white"/>
<path d="M8.64618 32.5864C10.1691 33.4844 11.8401 34.1566 13.6107 34.5596C13.0705 34.003 12.6511 33.3312 12.387 32.5864H8.64618Z" fill="white"/>
<path d="M20.3403 32.7632L19.4871 33.6164L17.5 31.6293L15.5129 33.6164L14.6593 32.7632L16.6468 30.7761L14.6593 28.7891L15.5129 27.9358L17.5 29.9229L19.4871 27.9358L20.3403 28.7891L18.3532 30.7761L20.3403 32.7632ZM17.5 26.5518C15.1711 26.5518 13.2756 28.4473 13.2756 30.7761C13.2756 33.105 15.1711 35 17.5 35C19.8289 35 21.7239 33.105 21.7239 30.7761C21.7239 28.4473 19.8289 26.5518 17.5 26.5518Z" fill="white"/>
<path d="M12.0688 30.776C12.0688 30.5735 12.0832 30.3705 12.1043 30.1726H5.44977C5.8979 30.5992 6.36671 31.0022 6.85957 31.3794H12.1043C12.0832 31.1815 12.0688 30.9786 12.0688 30.776Z" fill="white"/>
<path d="M27.1551 2.90649V21.1209C27.1551 22.7851 25.8019 24.138 24.138 24.138H19.3102V25.663C20.8496 26.2078 22.0682 27.4264 22.6126 28.9658H30.7052C33.3758 25.8917 35 21.8847 35 17.5C35 11.6282 32.0179 6.1312 27.1551 2.90649Z" fill="white"/>
<path d="M21.3893 34.5596C23.1595 34.1566 24.8309 33.4844 26.3538 32.5864H22.6126C22.3488 33.3312 21.929 34.003 21.3893 34.5596Z" fill="white"/>
<path d="M15.6897 25.663V24.138H10.862C9.19771 24.138 7.84487 22.7851 7.84487 21.1209V2.90649C2.98165 6.13373 0 11.6308 0 17.5C0 21.8847 1.62417 25.8917 4.29483 28.9658H12.387C12.9317 27.4264 14.1504 26.2078 15.6897 25.663Z" fill="white"/>
<path d="M22.9308 30.776C22.9308 30.9786 22.9169 31.1815 22.8958 31.3794H28.1404C28.6329 31.0022 29.1021 30.5992 29.5502 30.1726H22.8958C22.9169 30.3705 22.9308 30.5735 22.9308 30.776Z" fill="white"/>
<path d="M25.8373 21.7244H9.16229C9.41252 22.4244 10.0771 22.9312 10.862 22.9312H24.1381C24.9229 22.9312 25.5875 22.4244 25.8373 21.7244Z" fill="white"/>
<path d="M22.9308 19.3107C21.9315 19.3107 21.1205 18.4997 21.1205 17.5C21.1205 16.5008 21.9315 15.6897 22.9308 15.6897C23.9304 15.6897 24.7414 16.5008 24.7414 17.5C24.7414 18.4997 23.9304 19.3107 22.9308 19.3107ZM18.7068 19.3107H10.2585V15.6897H18.7068V19.3107ZM25.9483 14.4829H9.0517V20.5175H25.9483V14.4829Z" fill="white"/>
<path d="M22.9308 16.8965C22.5987 16.8965 22.3273 17.1678 22.3273 17.4999C22.3273 17.8324 22.5987 18.1033 22.9308 18.1033C23.2633 18.1033 23.5346 17.8324 23.5346 17.4999C23.5346 17.1678 23.2633 16.8965 22.9308 16.8965Z" fill="white"/>
<path d="M17.5 25.3448C17.7051 25.3448 17.9055 25.3591 18.1034 25.3802V24.1379H16.8966V25.3802C17.0945 25.3591 17.2949 25.3448 17.5 25.3448Z" fill="white"/>
</svg>
