<svg width="23" height="23" viewBox="0 0 23 23" fill="none" xmlns="http://www.w3.org/2000/svg">
<path d="M10.3728 19.1682L10.1265 19.1242C9.80932 19.0092 9.61574 18.6891 9.66078 18.3546L10.4409 12.4599H7.42787C7.15762 12.4599 6.90941 12.3075 6.78674 12.066C6.66407 11.8245 6.68803 11.5342 6.84807 11.3166L12.1189 4.12912C12.3154 3.85983 12.6719 3.76016 12.9776 3.89146C13.2842 4.02083 13.4625 4.34379 13.4079 4.67154L12.5894 9.58491H15.5737C15.8363 9.58491 16.0778 9.72771 16.2043 9.95866C16.3298 10.1887 16.3202 10.4695 16.1794 10.6908L10.9785 18.8367C10.8434 19.0475 10.6124 19.1682 10.3728 19.1682Z" fill="#FFC107"/>
<path d="M15.5727 9.58398H12.5885L10.4409 12.459L9.66077 18.3537C9.61573 18.6882 9.80932 19.0082 10.1265 19.1232L10.3728 19.1673C10.6124 19.1673 10.8434 19.0466 10.9785 18.8348L16.1794 10.6889C16.3202 10.4685 16.3298 10.1877 16.2043 9.95678C16.0768 9.72678 15.8353 9.58398 15.5727 9.58398Z" fill="#DEA806"/>
<path d="M2.59325 12.2188H0.71875C0.322 12.2188 0 11.8968 0 11.5C0 11.1033 0.322 10.7812 0.71875 10.7812H2.59325C2.99 10.7812 3.312 11.1033 3.312 11.5C3.312 11.8968 2.99 12.2188 2.59325 12.2188Z" fill="#FFD54F"/>
<path d="M3.312 11.5H0C0 11.8968 0.322 12.2188 0.71875 12.2188H2.59325C2.99 12.2188 3.312 11.8968 3.312 11.5Z" fill="#DEB945"/>
<path d="M22.2807 12.2188H20.4062C20.0095 12.2188 19.6875 11.8968 19.6875 11.5C19.6875 11.1033 20.0095 10.7812 20.4062 10.7812H22.2807C22.6775 10.7812 22.9995 11.1033 22.9995 11.5C22.9995 11.8968 22.6775 12.2188 22.2807 12.2188Z" fill="#FFD54F"/>
<path d="M22.9995 11.5H19.6875C19.6875 11.8968 20.0095 12.2188 20.4062 12.2188H22.2807C22.6775 12.2188 22.9995 11.8968 22.9995 11.5Z" fill="#DEB945"/>
<path d="M12.2188 20.4062V22.2807C12.2188 22.6775 11.8968 22.9995 11.5 22.9995C11.1033 22.9995 10.7812 22.6775 10.7812 22.2807V20.4062C10.7812 20.0095 11.1033 19.6875 11.5 19.6875C11.8968 19.6875 12.2188 20.0095 12.2188 20.4062Z" fill="#FFD54F"/>
<path d="M11.5 19.6875V22.9995C11.8968 22.9995 12.2188 22.6775 12.2188 22.2807V20.4062C12.2188 20.0095 11.8968 19.6875 11.5 19.6875Z" fill="#DEB945"/>
<path d="M12.2188 0.71875V2.59325C12.2188 2.99 11.8968 3.312 11.5 3.312C11.1033 3.312 10.7812 2.99 10.7812 2.59325V0.71875C10.7812 0.322 11.1033 0 11.5 0C11.8968 0 12.2188 0.322 12.2188 0.71875Z" fill="#FFD54F"/>
<path d="M11.5 0V3.312C11.8968 3.312 12.2188 2.99 12.2188 2.59325V0.71875C12.2188 0.322 11.8968 0 11.5 0Z" fill="#DEB945"/>
<path d="M4.69417 5.70901L3.3688 4.38364C3.08801 4.10284 3.08801 3.64764 3.3688 3.36684C3.64959 3.08605 4.1048 3.08605 4.38559 3.36684L5.71096 4.69222C5.99176 4.97301 5.99176 5.42822 5.71096 5.70901C5.43017 5.9898 4.97496 5.9898 4.69417 5.70901Z" fill="#FFD54F"/>
<path d="M5.71096 5.71131L3.3688 3.36914C3.08801 3.64993 3.08801 4.10514 3.3688 4.38593L4.69417 5.71131C4.97496 5.99114 5.43017 5.99114 5.71096 5.71131Z" fill="#DEB945"/>
<path d="M18.616 19.6309L17.2907 18.3055C17.0099 18.0247 17.0099 17.5695 17.2907 17.2887C17.5715 17.0079 18.0267 17.0079 18.3075 17.2887L19.6328 18.6141C19.9136 18.8949 19.9136 19.3501 19.6328 19.6309C19.3511 19.9117 18.8959 19.9117 18.616 19.6309Z" fill="#FFD54F"/>
<path d="M19.6309 19.6312L17.2887 17.2891C17.0079 17.5699 17.0079 18.0251 17.2887 18.3059L18.6141 19.6312C18.8949 19.912 19.3501 19.912 19.6309 19.6312Z" fill="#DEB945"/>
<path d="M5.71096 18.3055L4.38559 19.6309C4.1048 19.9117 3.64959 19.9117 3.3688 19.6309C3.08801 19.3501 3.08801 18.8949 3.3688 18.6141L4.69417 17.2887C4.97496 17.0079 5.43017 17.0079 5.71096 17.2887C5.9908 17.5695 5.9908 18.0247 5.71096 18.3055Z" fill="#FFD54F"/>
<path d="M5.71131 17.2891L3.36914 19.6312C3.64993 19.912 4.10514 19.912 4.38593 19.6312L5.71131 18.3059C5.99114 18.0251 5.99114 17.5699 5.71131 17.2891Z" fill="#DEB945"/>
<path d="M19.6309 4.38364L18.3055 5.70901C18.0247 5.9898 17.5695 5.9898 17.2887 5.70901C17.0079 5.42822 17.0079 4.97301 17.2887 4.69222L18.6141 3.36684C18.8949 3.08605 19.3501 3.08605 19.6309 3.36684C19.9117 3.64859 19.9117 4.1038 19.6309 4.38364Z" fill="#FFD54F"/>
<path d="M19.6312 3.36914L17.2891 5.71131C17.5699 5.9921 18.0251 5.9921 18.3059 5.71131L19.6312 4.38593C19.912 4.10514 19.912 3.64993 19.6312 3.36914Z" fill="#DEB945"/>
</svg>
