<svg width="38" height="38" viewBox="0 0 38 38" fill="none" xmlns="http://www.w3.org/2000/svg">
<path d="M0 18.9998C0 29.4501 8.54986 38 18.9998 38C29.4497 38 37.9996 29.4501 37.9996 18.9998C37.9996 8.54986 29.4497 0 18.9998 0C8.54986 0 0 8.54986 0 18.9998ZM30.5725 27.9819L10.0181 7.4271C12.5227 5.44109 15.6315 4.31833 18.9998 4.31833C27.1178 4.31833 33.6817 10.8818 33.6817 18.9998C33.6817 22.3681 32.5589 25.4773 30.5725 27.9819ZM4.3179 18.9998C4.3179 15.6319 5.44067 12.5227 7.4271 10.0181L27.9815 30.5725C25.4769 32.5589 22.3681 33.6817 18.9998 33.6817C10.8818 33.6817 4.3179 27.1182 4.3179 18.9998Z" fill="white"/>
<path d="M18.4786 20.031H20.3238V21.8707H18.4786V20.031Z" fill="white"/>
<path d="M18.4786 24.6306H20.3238V26.4703H18.4786V24.6306Z" fill="white"/>
<path d="M18.4786 15.4316H20.3238V17.2713H18.4786V15.4316Z" fill="white"/>
<path d="M18.4786 10.832H20.3238V12.6721H18.4786V10.832Z" fill="white"/>
<path d="M13.8655 20.031H15.7107V21.8707H13.8655V20.031Z" fill="white"/>
<path d="M13.8655 10.832H15.7107V12.6721H13.8655V10.832Z" fill="white"/>
<path d="M13.8655 15.4316H15.7107V17.2713H13.8655V15.4316Z" fill="white"/>
<path d="M13.8655 24.6306H15.7107V26.4703H13.8655V24.6306Z" fill="white"/>
<path d="M23.0918 15.4316H24.937V17.2713H23.0918V15.4316Z" fill="white"/>
<path d="M27.2438 8.07251H11.5587C11.3042 8.07251 11.0975 8.27843 11.0975 8.53242V29.6897C11.0975 29.9428 11.3042 30.15 11.5587 30.15H27.2438C27.4973 30.15 27.7049 29.9428 27.7049 29.6897V8.53242C27.7049 8.27843 27.4973 8.07251 27.2438 8.07251ZM16.6334 26.9302C16.6334 27.1833 16.4267 27.3901 16.1718 27.3901H13.4038C13.1494 27.3901 12.9427 27.1833 12.9427 26.9302V24.1707C12.9427 23.9176 13.1494 23.7104 13.4038 23.7104H16.1718C16.4267 23.7104 16.6334 23.9176 16.6334 24.1707V26.9302ZM16.6334 22.3306C16.6334 22.5838 16.4267 22.7906 16.1718 22.7906H13.4038C13.1494 22.7906 12.9427 22.5838 12.9427 22.3306V19.5712C12.9427 19.3172 13.1494 19.1113 13.4038 19.1113H16.1718C16.4267 19.1113 16.6334 19.3172 16.6334 19.5712V22.3306ZM16.6334 17.7311C16.6334 17.9851 16.4267 18.1914 16.1718 18.1914H13.4038C13.1494 18.1914 12.9427 17.9851 12.9427 17.7311V14.9716C12.9427 14.7176 13.1494 14.5117 13.4038 14.5117H16.1718C16.4267 14.5117 16.6334 14.7176 16.6334 14.9716V17.7311ZM16.6334 13.132C16.6334 13.3855 16.4267 13.5919 16.1718 13.5919H13.4038C13.1494 13.5919 12.9427 13.3855 12.9427 13.132V10.3721C12.9427 10.1185 13.1494 9.91216 13.4038 9.91216H16.1718C16.4267 9.91216 16.6334 10.1185 16.6334 10.3721V13.132ZM21.2466 26.9302C21.2466 27.1833 21.039 27.3901 20.7854 27.3901H18.0174C17.7626 27.3901 17.5558 27.1833 17.5558 26.9302V24.1707C17.5558 23.9176 17.7626 23.7104 18.0174 23.7104H20.7854C21.039 23.7104 21.2466 23.9176 21.2466 24.1707V26.9302ZM21.2466 22.3306C21.2466 22.5838 21.039 22.7906 20.7854 22.7906H18.0174C17.7626 22.7906 17.5558 22.5838 17.5558 22.3306V19.5712C17.5558 19.3172 17.7626 19.1113 18.0174 19.1113H20.7854C21.039 19.1113 21.2466 19.3172 21.2466 19.5712V22.3306ZM21.2466 17.7311C21.2466 17.9851 21.039 18.1914 20.7854 18.1914H18.0174C17.7626 18.1914 17.5558 17.9851 17.5558 17.7311V14.9716C17.5558 14.7176 17.7626 14.5117 18.0174 14.5117H20.7854C21.039 14.5117 21.2466 14.7176 21.2466 14.9716V17.7311ZM21.2466 13.132C21.2466 13.3855 21.039 13.5919 20.7854 13.5919H18.0174C17.7626 13.5919 17.5558 13.3855 17.5558 13.132V10.3721C17.5558 10.1185 17.7626 9.91216 18.0174 9.91216H20.7854C21.039 9.91216 21.2466 10.1185 21.2466 10.3721V13.132ZM25.8598 26.9302C25.8598 27.1833 25.6521 27.3901 25.3986 27.3901H22.6306C22.377 27.3901 22.1694 27.1833 22.1694 26.9302V19.5712C22.1694 19.3172 22.377 19.1113 22.6306 19.1113H25.3986C25.6521 19.1113 25.8598 19.3172 25.8598 19.5712V26.9302ZM25.8598 17.7311C25.8598 17.9851 25.6521 18.1914 25.3986 18.1914H22.6306C22.377 18.1914 22.1694 17.9851 22.1694 17.7311V14.9716C22.1694 14.7176 22.377 14.5117 22.6306 14.5117H25.3986C25.6521 14.5117 25.8598 14.7176 25.8598 14.9716V17.7311ZM25.8598 13.132C25.8598 13.3855 25.6521 13.5919 25.3986 13.5919H22.6306C22.377 13.5919 22.1694 13.3855 22.1694 13.132V10.3721C22.1694 10.1185 22.377 9.91216 22.6306 9.91216H25.3986C25.6521 9.91216 25.8598 10.1185 25.8598 10.3721V13.132Z" fill="white"/>
<path d="M23.0918 20.031H24.937V26.4702H23.0918V20.031Z" fill="white"/>
<path d="M23.0918 10.832H24.937V12.6721H23.0918V10.832Z" fill="white"/>
</svg>
