<svg width="167" height="167" viewBox="0 0 167 167" fill="none" xmlns="http://www.w3.org/2000/svg">
<path d="M102.27 136.334L115.566 127.87C116.239 129.227 116.386 130.786 115.98 132.246C115.573 133.705 114.641 134.963 113.363 135.777L110.366 137.685C109.088 138.498 107.554 138.81 106.059 138.561C104.564 138.312 103.215 137.518 102.27 136.334Z" fill="#6D6D93"/>
<path d="M112.029 119.173L95.886 129.45C95.646 129.603 95.4384 129.801 95.2751 130.034C95.1119 130.267 94.9961 130.53 94.9344 130.808C94.8727 131.085 94.8664 131.373 94.9157 131.653C94.9651 131.933 95.0691 132.201 95.2219 132.441L95.3753 132.682C95.5279 132.922 95.7264 133.13 95.9594 133.293C96.1923 133.456 96.4552 133.572 96.733 133.634C97.0108 133.696 97.298 133.702 97.5782 133.652C97.8584 133.603 98.1261 133.499 98.3661 133.346L114.509 123.069C114.749 122.917 114.957 122.718 115.12 122.485C115.284 122.252 115.399 121.989 115.461 121.712C115.523 121.434 115.529 121.147 115.48 120.866C115.43 120.586 115.326 120.318 115.173 120.078L115.02 119.838C114.867 119.598 114.668 119.39 114.435 119.227C114.202 119.063 113.94 118.948 113.662 118.886C113.384 118.824 113.097 118.818 112.817 118.867C112.537 118.917 112.269 119.021 112.029 119.173Z" fill="#4A5160"/>
<path d="M103.805 83.4767C97.2684 73.7697 84.1139 70.9696 74.1848 77.1642C70.4426 79.4975 67.4958 82.9105 65.7331 86.9528C63.9704 90.9951 63.4746 95.4769 64.3111 99.8068C65.1477 104.137 67.2773 108.111 70.4189 111.206C73.5606 114.301 77.5667 116.37 81.9087 117.142C84.0047 117.517 85.9984 118.329 87.7601 119.524C89.5235 120.721 91.023 122.266 92.1662 124.064L93.1981 125.685L109.754 115.145L108.713 113.509C107.566 111.689 106.808 109.652 106.484 107.525C106.161 105.399 106.279 103.228 106.832 101.149C107.612 98.1577 107.746 95.0341 107.224 91.9868C106.702 88.9395 105.536 86.0384 103.805 83.4767Z" fill="#F2CF7D"/>
<path d="M113.711 123.578L99.1634 132.839C98.9233 132.991 98.7158 133.19 98.5525 133.423C98.3892 133.656 98.2734 133.919 98.2118 134.196C98.1501 134.474 98.1437 134.761 98.1931 135.041C98.2424 135.322 98.3464 135.589 98.4993 135.829L98.6527 136.07C98.8053 136.31 99.0037 136.518 99.2367 136.682C99.4697 136.845 99.7326 136.961 100.01 137.023C100.288 137.084 100.575 137.09 100.856 137.041C101.136 136.992 101.403 136.887 101.643 136.734L116.191 127.474C116.431 127.321 116.639 127.122 116.802 126.89C116.966 126.657 117.081 126.394 117.143 126.116C117.205 125.838 117.211 125.551 117.162 125.271C117.112 124.99 117.008 124.723 116.855 124.483L116.702 124.242C116.549 124.002 116.35 123.794 116.117 123.631C115.884 123.468 115.622 123.352 115.344 123.29C115.066 123.229 114.779 123.222 114.499 123.272C114.219 123.321 113.951 123.425 113.711 123.578Z" fill="#6D7486"/>
<path d="M96.7029 121.177C95.5508 119.382 94.0434 117.842 92.2735 116.652C90.5071 115.458 88.5096 114.649 86.4104 114.277C82.3093 113.55 78.5021 111.664 75.4391 108.842C72.3761 106.02 70.1854 102.379 69.1263 98.3513C68.0671 94.3233 68.1837 90.0762 69.4623 86.1123C70.741 82.1485 73.1281 78.6338 76.3414 75.9839C72.1712 77.9717 68.7401 81.2324 66.5425 85.296C64.345 89.3595 63.4946 94.0159 64.114 98.5938C64.7334 103.172 66.7906 107.435 69.9889 110.768C73.1872 114.102 77.3615 116.333 81.91 117.142C84.0122 117.511 86.0135 118.318 87.7844 119.51C89.554 120.7 91.0611 122.24 92.2129 124.035L93.2466 125.659L97.7366 122.8L96.7029 121.177Z" fill="#BA9C61"/>
<path d="M106.754 133.466L102.264 136.324C103.201 137.521 104.552 138.324 106.052 138.576C107.551 138.828 109.09 138.51 110.367 137.685L113.364 135.778C113.612 135.617 113.849 135.438 114.072 135.243C112.829 135.803 111.434 135.932 110.108 135.61C108.783 135.288 107.602 134.534 106.754 133.466Z" fill="#5D5D75"/>
<path d="M99.8859 129.809L99.7325 129.568C99.578 129.331 99.472 129.065 99.4207 128.787C99.3693 128.508 99.3736 128.222 99.4333 127.945C99.493 127.668 99.6069 127.406 99.7685 127.173C99.9301 126.94 100.136 126.742 100.375 126.589L95.8847 129.448C95.6461 129.6 95.4401 129.799 95.2785 130.031C95.117 130.264 95.0031 130.526 94.9434 130.803C94.8837 131.08 94.8794 131.366 94.9307 131.645C94.982 131.923 95.088 132.189 95.2425 132.427L95.3959 132.667C95.5454 132.908 95.741 133.116 95.9715 133.28C96.202 133.444 96.4628 133.56 96.7387 133.623C97.0145 133.685 97.3001 133.692 97.5787 133.643C97.8573 133.595 98.1235 133.491 98.3619 133.339L102.852 130.481C102.614 130.633 102.347 130.736 102.069 130.785C101.79 130.834 101.505 130.827 101.229 130.764C100.953 130.702 100.692 130.585 100.462 130.421C100.231 130.257 100.035 130.049 99.8859 129.809Z" fill="#383E47"/>
<path d="M103.113 133.23L102.96 132.989C102.655 132.497 102.557 131.904 102.686 131.34C102.814 130.776 103.16 130.285 103.649 129.974L99.1586 132.832C98.6704 133.143 98.3245 133.634 98.1956 134.198C98.0667 134.763 98.1652 135.355 98.4699 135.847L98.6233 136.088C98.9396 136.57 99.434 136.908 99.9984 137.027C100.563 137.146 101.152 137.037 101.636 136.724L106.126 133.865C105.642 134.179 105.053 134.288 104.488 134.169C103.924 134.05 103.43 133.712 103.113 133.23Z" fill="#4A5160"/>
<path d="M70.0284 71.0777C69.7423 71.2878 69.4116 71.3993 69.109 71.3878C68.8064 71.3764 68.5568 71.2428 68.4149 71.0166L64.2438 64.3628C64.1019 64.1366 64.0796 63.8362 64.1816 63.5277C64.2836 63.2192 64.5016 62.9279 64.7877 62.7179C65.0738 62.5078 65.4045 62.3963 65.7071 62.4078C66.0097 62.4192 66.2594 62.5528 66.4012 62.779L70.5724 69.4328C70.7142 69.659 70.7366 69.9594 70.6346 70.2679C70.5326 70.5764 70.3145 70.8677 70.0284 71.0777Z" fill="#F2CF7D"/>
<path d="M120.347 76.0114L113.161 80.8316C112.916 80.9955 112.634 81.0819 112.375 81.072C112.117 81.062 111.903 80.9565 111.782 80.7785C111.66 80.6005 111.641 80.3647 111.728 80.123C111.815 79.8812 112.001 79.6533 112.246 79.4894L119.432 74.6693C119.676 74.5054 119.958 74.4189 120.217 74.4288C120.476 74.4388 120.689 74.5444 120.81 74.7223C120.932 74.9003 120.951 75.1361 120.864 75.3779C120.777 75.6196 120.591 75.8475 120.347 76.0114Z" fill="#F2CF7D"/>
<path d="M60.6025 114.045L53.4165 118.865C53.1722 119.029 52.8896 119.115 52.631 119.105C52.3724 119.095 52.159 118.99 52.0376 118.812C51.9163 118.634 51.897 118.398 51.9839 118.156C52.0709 117.914 52.257 117.687 52.5014 117.523L59.6874 112.702C59.9317 112.539 60.2143 112.452 60.4729 112.462C60.7314 112.472 60.9449 112.578 61.0662 112.756C61.1876 112.934 61.2069 113.169 61.1199 113.411C61.033 113.653 60.8469 113.881 60.6025 114.045Z" fill="#F2CF7D"/>
<path d="M93.3579 66.1761C93.1634 66.3156 92.9449 66.4071 92.7297 66.439C92.5146 66.471 92.3126 66.4419 92.1493 66.3556C91.986 66.2692 91.8686 66.1295 91.8122 65.9539C91.7557 65.7784 91.7626 65.575 91.832 65.3695L94.8522 56.4252C94.9452 56.1496 95.144 55.8896 95.4047 55.7026C95.6654 55.5156 95.9667 55.4168 96.2424 55.4279C96.518 55.439 96.7454 55.5592 96.8745 55.762C97.0036 55.9648 97.0238 56.2336 96.9307 56.5092L93.9104 65.4536C93.8645 65.5901 93.792 65.7242 93.6972 65.8482C93.6024 65.9722 93.4871 66.0837 93.3579 66.1761Z" fill="#F2CF7D"/>
<path d="M55.5571 89.7578C55.4281 89.8505 55.2876 89.9225 55.1439 89.9697C55.0002 90.0168 54.8559 90.0382 54.7195 90.0325L45.7751 89.6709C45.6386 89.6654 45.5126 89.6331 45.4041 89.5757C45.2956 89.5184 45.2069 89.4373 45.143 89.3369C45.0791 89.2365 45.0412 89.1188 45.0315 88.9906C45.0219 88.8624 45.0406 88.7262 45.0867 88.5897C45.1328 88.4533 45.2053 88.3192 45.3001 88.1952C45.3949 88.0712 45.5101 87.9598 45.6392 87.8672C45.7682 87.7746 45.9087 87.7026 46.0524 87.6555C46.1961 87.6084 46.3403 87.5869 46.4768 87.5924L55.4212 87.9538C55.6268 87.9621 55.8072 88.0312 55.9395 88.1523C56.0719 88.2734 56.1503 88.4411 56.1648 88.6341C56.1793 88.8272 56.1294 89.037 56.0212 89.237C55.913 89.437 55.7515 89.6182 55.557 89.7576L55.5571 89.7578Z" fill="#F2CF7D"/>
<path d="M100.411 122.264C100.208 122.392 99.9682 122.449 99.7295 122.424C99.4908 122.399 99.2676 122.294 99.096 122.126L83.6749 107.058C83.5749 106.961 83.4951 106.844 83.4401 106.716C83.3852 106.587 83.356 106.449 83.3544 106.309C83.3528 106.17 83.3788 106.031 83.4308 105.901C83.4828 105.771 83.5598 105.653 83.6575 105.553C83.7552 105.453 83.8717 105.373 84.0002 105.318C84.1287 105.263 84.2668 105.234 84.4066 105.233C84.5464 105.231 84.6851 105.257 84.8149 105.309C84.9447 105.361 85.0629 105.438 85.1629 105.536L100.584 120.604C100.699 120.716 100.787 120.853 100.841 121.003C100.896 121.154 100.915 121.316 100.899 121.475C100.882 121.635 100.83 121.789 100.745 121.925C100.661 122.062 100.546 122.178 100.411 122.264Z" fill="#B0B5CA"/>
<path d="M103.605 120.231C103.47 120.317 103.318 120.372 103.159 120.39C103 120.409 102.84 120.393 102.689 120.341C102.537 120.289 102.4 120.204 102.286 120.093C102.172 119.981 102.085 119.844 102.03 119.694L94.7453 99.446C94.6963 99.3141 94.6739 99.1738 94.6795 99.0331C94.685 98.8925 94.7184 98.7544 94.7777 98.6268C94.837 98.4991 94.921 98.3845 95.0249 98.2896C95.1287 98.1946 95.2504 98.1212 95.3828 98.0735C95.5152 98.0259 95.6558 98.005 95.7963 98.012C95.9369 98.019 96.0747 98.0539 96.2017 98.1145C96.3287 98.1751 96.4424 98.2603 96.5363 98.3652C96.6301 98.47 96.7023 98.5925 96.7485 98.7254L104.034 118.973C104.116 119.201 104.118 119.449 104.04 119.678C103.962 119.906 103.808 120.102 103.605 120.231Z" fill="#B0B5CA"/>
<path d="M71.6422 105.896C71.4041 106.048 71.1154 106.098 70.8398 106.037C70.5642 105.976 70.3242 105.808 70.1726 105.57C70.0277 105.342 69.8859 105.108 69.7515 104.875C69.6816 104.754 69.6362 104.621 69.6179 104.482C69.5996 104.343 69.6088 104.203 69.6449 104.068C69.681 103.933 69.7434 103.806 69.8285 103.695C69.9135 103.584 70.0196 103.491 70.1407 103.421C70.2617 103.351 70.3953 103.306 70.5339 103.287C70.6725 103.269 70.8133 103.278 70.9484 103.314C71.0834 103.351 71.21 103.413 71.321 103.498C71.4319 103.583 71.525 103.689 71.595 103.81C71.7144 104.017 71.8401 104.224 71.9687 104.426C72.0438 104.544 72.0949 104.676 72.1191 104.814C72.1433 104.951 72.1402 105.092 72.1099 105.229C72.0796 105.365 72.0227 105.494 71.9424 105.609C71.8622 105.723 71.7602 105.821 71.6422 105.896Z" fill="#F4F8FC"/>
<path d="M69.7942 102.015C69.6576 102.102 69.503 102.157 69.342 102.175C69.1811 102.194 69.0181 102.175 68.8655 102.121C68.7129 102.066 68.5746 101.978 68.4613 101.862C68.3479 101.747 68.2625 101.607 68.2115 101.453C67.0795 98.0108 66.9848 94.3117 67.9392 90.8161C68.8935 87.3205 70.8547 84.1828 73.5787 81.7933C73.7919 81.6101 74.0688 81.5186 74.3491 81.5389C74.6295 81.5591 74.8904 81.6893 75.0751 81.9012C75.2597 82.1131 75.3531 82.3894 75.3348 82.6698C75.3166 82.9503 75.1881 83.2121 74.9775 83.3982C72.5699 85.5118 70.8365 88.2863 69.9928 91.3769C69.1491 94.4675 69.2323 97.7379 70.232 100.782C70.3068 101.007 70.3043 101.25 70.225 101.474C70.1457 101.697 69.9941 101.888 69.7942 102.015Z" fill="#F4F8FC"/>
<path d="M96.1452 95.6628C94.7286 96.5646 94.6919 98.0444 94.6649 99.125C94.6399 100.139 94.5878 100.578 94.1697 100.844C93.7515 101.11 93.3315 100.972 92.4024 100.565C91.4118 100.133 90.0558 99.5393 88.639 100.441C87.2223 101.343 87.1866 102.822 87.1596 103.903C87.1347 104.916 87.083 105.355 86.6656 105.621C86.2482 105.887 85.828 105.748 84.8993 105.342C83.9086 104.909 82.5529 104.316 81.1363 105.217C80.8981 105.369 80.7299 105.609 80.6687 105.885C80.6075 106.16 80.6583 106.449 80.8099 106.687C80.9616 106.925 81.2016 107.093 81.4772 107.155C81.7528 107.216 82.0414 107.165 82.2796 107.013C82.6975 106.747 83.1172 106.886 84.046 107.293C85.0366 107.725 86.3925 108.319 87.8089 107.417C89.2253 106.515 89.2614 105.036 89.288 103.955C89.3127 102.942 89.3645 102.503 89.7819 102.237C90.1993 101.972 90.6201 102.11 91.5492 102.516C92.5398 102.949 93.8958 103.542 95.3125 102.64C96.7293 101.739 96.766 100.259 96.7929 99.1782C96.818 98.1644 96.8699 97.7253 97.2881 97.4591C97.5262 97.3075 97.6944 97.0674 97.7556 96.7918C97.8168 96.5162 97.766 96.2276 97.6144 95.9894C97.4628 95.7513 97.2228 95.5831 96.9472 95.5219C96.6716 95.4607 96.3829 95.5115 96.1448 95.6631L96.1452 95.6628Z" fill="#FFF27D"/>
<path d="M110.347 114.769L92.6087 126.061C92.3687 126.214 92.1611 126.413 91.9978 126.646C91.8345 126.878 91.7187 127.141 91.6571 127.419C91.5954 127.697 91.5891 127.984 91.6384 128.264C91.6877 128.544 91.7918 128.812 91.9446 129.052L92.098 129.293C92.2507 129.533 92.4492 129.741 92.6822 129.904C92.9152 130.067 93.178 130.183 93.4558 130.245C93.7335 130.306 94.0207 130.313 94.3008 130.263C94.581 130.214 94.8487 130.11 95.0887 129.957L112.827 118.665C113.067 118.512 113.275 118.314 113.438 118.081C113.601 117.848 113.717 117.585 113.779 117.307C113.84 117.029 113.847 116.742 113.797 116.462C113.748 116.182 113.644 115.914 113.491 115.674L113.338 115.433C113.185 115.193 112.987 114.986 112.754 114.822C112.521 114.659 112.258 114.543 111.98 114.482C111.702 114.42 111.415 114.414 111.135 114.463C110.855 114.512 110.587 114.616 110.347 114.769Z" fill="#6D7486"/>
<path d="M96.6583 126.389L96.5049 126.148C95.8627 125.139 96.0903 123.848 97.1006 123.205L92.6106 126.063C91.6003 126.706 91.3728 127.997 92.0149 129.006L92.1683 129.247C92.8105 130.256 94.0775 130.598 95.0878 129.954L99.5778 127.096C98.5675 127.739 97.3005 127.397 96.6583 126.389Z" fill="#4A5160"/>
</svg>
