<svg width="42" height="29" viewBox="0 0 42 29" fill="none" xmlns="http://www.w3.org/2000/svg">
<path d="M41.8145 24.7354V9.38269C41.8145 9.1555 41.7241 8.93869 41.565 8.77868L33.0308 0.248914C32.8708 0.0903796 32.654 0 32.4268 0L5.11737 0C2.76553 0 0.850266 1.91427 0.850266 4.26463V24.7354C0.850266 27.0862 2.76553 29 5.11737 29L37.5474 29C39.8992 29 41.8145 27.0862 41.8145 24.7354ZM28.1597 7.67634V10.2356H22.1858C21.7146 10.2356 21.3324 10.6174 21.3324 11.0885C21.3324 11.5592 21.7146 11.9415 22.1858 11.9415H28.1597V17.059L22.1858 17.059C21.7146 17.059 21.3324 17.4413 21.3324 17.912C21.3324 18.3826 21.7146 18.7649 22.1858 18.7649L28.1597 18.7649V21.3237C28.1597 22.7342 27.011 23.8824 25.5995 23.8824L17.9187 23.8824L17.9187 15.3532H22.1858C22.6569 15.3532 23.0392 14.9709 23.0392 14.5002C23.0392 14.0291 22.6569 13.6473 22.1858 13.6473H17.9187V5.11756L25.5995 5.11756C27.011 5.11756 28.1597 6.26583 28.1597 7.67634ZM5.97079 21.3237V15.3532H11.9447C12.4159 15.3532 12.7982 14.9709 12.7982 14.5002C12.7982 14.0291 12.4159 13.6473 11.9447 13.6473H5.97079V7.67634C5.97079 6.26583 7.11955 5.11756 8.53105 5.11756L16.2118 5.11756V10.2356H11.9447C11.4736 10.2356 11.0913 10.6174 11.0913 11.0885C11.0913 11.5592 11.4736 11.9415 11.9447 11.9415H16.2118L16.2118 17.059H11.9447C11.4736 17.059 11.0913 17.4413 11.0913 17.912C11.0913 18.3826 11.4736 18.7649 11.9447 18.7649H16.2118V23.8824H8.53105C7.11955 23.8824 5.97079 22.7342 5.97079 21.3237Z" fill="white"/>
</svg>
