<svg width="31" height="32" viewBox="0 0 31 32" fill="none" xmlns="http://www.w3.org/2000/svg">
<path d="M3.83541 0C1.98078 0 0.472656 1.5095 0.472656 3.36618V26.9267C0.472656 28.7834 1.98078 30.2929 3.83541 30.2929H10.5616C10.5602 30.404 10.5691 30.5152 10.5897 30.6243C10.6103 30.7341 10.6412 30.8411 10.6824 30.944C10.7242 31.0476 10.7757 31.1464 10.8367 31.2391C10.8978 31.3324 10.9671 31.4188 11.0453 31.4984C11.1235 31.578 11.2093 31.6487 11.3013 31.7111C11.3939 31.7736 11.4913 31.8264 11.5942 31.8696C11.6965 31.9122 11.8028 31.9451 11.9119 31.9671C12.021 31.989 12.1315 32 12.2433 32C12.3545 32 12.4649 31.989 12.574 31.9671C12.6831 31.9451 12.7895 31.9122 12.8917 31.8696C12.9946 31.8264 13.0921 31.7736 13.1847 31.7111C13.2773 31.6487 13.3624 31.578 13.4406 31.4984C13.5188 31.4188 13.5881 31.3324 13.6492 31.2391C13.7103 31.1464 13.7617 31.0476 13.8036 30.944C13.8448 30.8411 13.8756 30.7341 13.8962 30.6243C13.9168 30.5152 13.9264 30.404 13.9243 30.2929V15.1464C13.9257 15.0339 13.9161 14.9221 13.8955 14.8116C13.8749 14.7011 13.8434 14.5934 13.8008 14.4891C13.7583 14.3848 13.7062 14.286 13.6437 14.192C13.5813 14.098 13.5106 14.0116 13.431 13.932C13.3514 13.8524 13.2643 13.7817 13.171 13.72C13.077 13.6575 12.9782 13.6054 12.8739 13.5628C12.7696 13.521 12.6619 13.4894 12.5514 13.4688C12.4409 13.4483 12.3291 13.4387 12.2166 13.4407C12.1068 13.4421 11.9977 13.4544 11.8893 13.4778C11.7815 13.5011 11.6773 13.5347 11.5757 13.5786C11.4748 13.6219 11.3788 13.6754 11.2882 13.7378C11.197 13.8009 11.1132 13.8716 11.0364 13.9505C10.9596 14.0301 10.8916 14.1159 10.8312 14.2085C10.7716 14.3011 10.7215 14.3986 10.6803 14.5015C10.6398 14.6037 10.6089 14.7094 10.589 14.8178C10.5691 14.9269 10.5602 15.036 10.5616 15.1464V21.8418C8.52858 20.3082 7.19885 17.891 7.19885 15.1464C7.19885 10.4999 10.9637 6.73168 15.6061 6.73168C20.2485 6.73168 24.0133 10.4999 24.0133 15.1464C24.0133 17.891 22.6836 20.3082 20.6505 21.8418V15.1464C20.6519 15.0339 20.6423 14.9221 20.6217 14.8116C20.6004 14.7011 20.5689 14.5934 20.527 14.4891C20.4845 14.3848 20.4317 14.286 20.3699 14.192C20.3075 14.098 20.2368 14.0116 20.1572 13.932C20.0776 13.8524 19.9905 13.7817 19.8965 13.72C19.8032 13.6575 19.7037 13.6054 19.5994 13.5628C19.4951 13.521 19.388 13.4894 19.2776 13.4688C19.1664 13.4483 19.0553 13.4387 18.9427 13.4407C18.8323 13.4421 18.7232 13.4544 18.6155 13.4778C18.5077 13.5011 18.4034 13.5347 18.3019 13.5786C18.201 13.6219 18.105 13.6754 18.0137 13.7378C17.9231 13.8009 17.8394 13.8716 17.7626 13.9505C17.6857 14.0301 17.6171 14.1159 17.5574 14.2085C17.4977 14.3011 17.447 14.3986 17.4065 14.5015C17.3653 14.6037 17.3351 14.7094 17.3152 14.8178C17.2953 14.9269 17.2857 15.036 17.2878 15.1464V30.2929C17.2857 30.404 17.2953 30.5152 17.3159 30.6243C17.3358 30.7341 17.3674 30.8411 17.4085 30.944C17.4504 31.0476 17.5012 31.1464 17.5622 31.2391C17.6233 31.3324 17.6933 31.4188 17.7715 31.4984C17.8497 31.578 17.9348 31.6487 18.0274 31.7111C18.1194 31.7736 18.2175 31.8264 18.3197 31.8696C18.4227 31.9122 18.529 31.9451 18.6381 31.9671C18.7472 31.989 18.8577 32 18.9688 32C19.0807 32 19.1904 31.989 19.3002 31.9671C19.4093 31.9451 19.515 31.9122 19.6179 31.8696C19.7208 31.8264 19.8183 31.7736 19.9109 31.7111C20.0028 31.6487 20.0886 31.578 20.1668 31.4984C20.245 31.4188 20.3143 31.3324 20.3754 31.2391C20.4365 31.1464 20.4879 31.0476 20.5291 30.944C20.5709 30.8411 20.6018 30.7341 20.6224 30.6243C20.643 30.5152 20.6519 30.404 20.6505 30.2929H27.3767C29.2314 30.2929 30.7395 28.7834 30.7395 26.9267V3.36618C30.7395 1.5095 29.2314 0 27.3767 0H3.83541Z" fill="white"/>
</svg>
